<?xml version="1.0" standalone="no"?>
<!DOCTYPE svg PUBLIC "-//W3C//DTD SVG 20010904//EN"
 "http://www.w3.org/TR/2001/REC-SVG-20010904/DTD/svg10.dtd">
<svg version="1.0" xmlns="http://www.w3.org/2000/svg"
 width="300.000000pt" height="41.000000pt" viewBox="0 0 300.000000 41.000000"
 preserveAspectRatio="xMidYMid meet">
<metadata>
Created by potrace 1.10, written by Peter Selinger 2001-2011
</metadata>
<g transform="translate(0.000000,41.000000) scale(0.050000,-0.050000)"
fill="#000000" stroke="none">
<path d="M40 729 c0 -17 45 -143 99 -280 232 -580 277 -573 530 85 86 223 86
226 13 226 -79 0 -92 -23 -279 -489 -12 -30 -34 8 -99 170 -103 256 -104 239
16 239 87 0 100 5 100 40 0 37 -13 40 -190 40 -158 0 -190 -5 -190 -31z"/>
<path d="M1185 735 c-27 -34 -180 -380 -196 -441 -10 -40 -3 -53 29 -63 83
-27 116 5 183 180 37 93 72 169 78 169 10 0 122 -251 172 -385 12 -32 -7 -35
-248 -35 -238 0 -263 -3 -282 -39 -43 -79 -33 -81 359 -81 321 0 380 5 380 29
0 38 -101 292 -205 516 l-81 175 -84 0 c-47 0 -94 -11 -105 -25z"/>
<path d="M1880 404 l0 -356 67 -4 67 -5 13 124 c16 156 16 318 0 474 l-13 123
-67 0 -67 0 0 -356z"/>
<path d="M2640 720 c0 -38 13 -40 300 -40 287 0 300 2 300 40 0 38 -13 40
-300 40 -287 0 -300 -2 -300 -40z"/>
<path d="M3583 635 c88 -131 280 -391 384 -521 53 -66 71 -75 132 -70 l71 6 5
355 6 355 -69 0 -69 0 -12 -145 c-6 -80 -14 -185 -16 -234 l-5 -89 -58 88
c-189 287 -277 378 -368 379 l-85 1 84 -125z"/>
<path d="M4550 717 c-181 -143 -166 -503 27 -631 151 -100 234 7 94 119 -141
113 -123 397 28 445 27 8 41 30 41 61 0 65 -110 68 -190 6z"/>
<path d="M4840 722 c0 -22 24 -47 61 -62 33 -14 79 -52 102 -84 31 -44 55 -57
94 -52 149 17 -4 229 -167 233 -75 1 -90 -5 -90 -35z"/>
<path d="M5420 720 c0 -38 13 -40 280 -40 267 0 280 2 280 40 0 38 -13 40
-280 40 -267 0 -280 -2 -280 -40z"/>
<path d="M2654 487 c-8 -7 -14 -44 -14 -80 l0 -67 281 0 281 0 -6 75 -6 75
-261 6 c-144 3 -267 -1 -275 -9z"/>
<path d="M5408 472 c-42 -111 -17 -122 272 -122 l270 0 0 70 0 70 -265 6
c-218 4 -268 0 -277 -24z"/>
<path d="M5006 247 c-19 -29 -64 -65 -100 -80 -86 -36 -94 -116 -14 -123 106
-8 328 189 274 243 -34 34 -127 11 -160 -40z"/>
<path d="M3480 185 c1 -198 146 -215 156 -18 l6 113 -81 0 -81 0 0 -95z"/>
<path d="M2107 130 c-27 -71 7 -90 162 -90 l151 0 0 60 0 60 -151 0 c-115 0
-153 -7 -162 -30z"/>
<path d="M2640 99 l0 -61 300 3 300 3 0 58 0 58 -300 0 -300 0 0 -61z"/>
<path d="M5416 150 c-6 -6 -6 -33 -1 -60 l10 -50 275 0 c292 0 298 2 300 105
0 17 -567 21 -584 5z"/>
</g>
</svg>
