 <svg  version="1.0" xmlns="http://www.w3.org/2000/svg"  width="185.000000pt" height="145.000000pt" viewBox="0 0 185.000000 145.000000"  preserveAspectRatio="xMidYMid meet">  <g transform="translate(0.000000,145.000000) scale(0.050000,-0.050000)" fill="#00cfd1" stroke="none"> <path d="M572 2549 c-72 -189 -55 -610 36 -861 428 -1178 2144 -1151 2524 40 95 299 83 829 -20 849 -31 6 -33 -4 -18 -90 160 -944 -669 -1716 -1574 -1466 -631 175 -1021 841 -875 1494 15 71 -47 100 -73 34z"/> <path d="M1045 2380 c-343 -738 249 -1487 1034 -1309 598 136 874 775 582 1347 -63 123 -69 92 -20 -99 178 -685 -307 -1236 -965 -1097 -476 102 -756 629 -589 1113 57 165 29 196 -42 45z"/> <path d="M1370 2420 c-7 -12 80 -250 193 -530 l206 -510 100 0 101 1 197 484 c238 586 234 565 103 565 l-100 0 -124 -310 c-68 -170 -130 -339 -137 -375 -13 -65 -69 -93 -69 -35 0 24 -109 307 -193 504 -8 17 31 26 136 30 l147 6 0 90 0 90 -273 6 c-176 3 -279 -2 -287 -16z"/> <path d="M190 2141 c-190 -78 -153 -381 51 -414 70 -11 75 -17 107 -131 151 -544 630 -952 1252 -1065 49 -9 82 -31 110 -76 80 -128 262 -122 348 11 37 55 62 74 103 74 463 0 1094 545 1225 1060 24 93 37 111 90 129 218 73 209 382 -11 423 -225 42 -359 -277 -165 -389 84 -47 24 -219 -171 -494 -236 -334 -971 -710 -1080 -553 -69 97 -269 98 -338 0 -109 -156 -842 201 -1096 535 -132 172 -275 509 -217 509 32 0 102 121 102 176 0 152 -168 263 -310 205z"/> </g> </svg> 