<?xml version="1.0" standalone="no"?>
<!DOCTYPE svg PUBLIC "-//W3C//DTD SVG 20010904//EN"
 "http://www.w3.org/TR/2001/REC-SVG-20010904/DTD/svg10.dtd">
<svg version="1.0" xmlns="http://www.w3.org/2000/svg"
 width="185.000000pt" height="145.000000pt" viewBox="0 0 185.000000 145.000000"
 preserveAspectRatio="xMidYMid meet">
<metadata>
Created by potrace 1.10, written by Peter Selinger 2001-2011
</metadata>
<g transform="translate(0.000000,145.000000) scale(0.100000,-0.100000)"
fill="#000000" stroke="none">
<path d="M437 1230 c-21 -24 -21 -29 -3 -66 8 -16 47 -110 86 -209 40 -99 80
-198 90 -220 10 -22 41 -98 70 -170 28 -72 58 -143 66 -159 8 -16 14 -33 14
-38 0 -4 8 -27 19 -51 10 -23 24 -57 31 -75 17 -44 36 -52 117 -52 67 1 103
14 103 39 0 6 5 19 10 29 9 14 88 206 210 512 94 234 161 398 169 410 6 10 3
24 -7 43 -16 26 -19 27 -99 27 l-83 0 -14 -32 c-8 -18 -24 -54 -35 -80 -12
-26 -21 -52 -21 -58 0 -6 -4 -18 -9 -28 -8 -16 -17 -36 -41 -97 -5 -14 -14
-36 -20 -50 -5 -14 -14 -36 -20 -50 -5 -14 -14 -36 -20 -50 -24 -61 -33 -81
-41 -97 -5 -10 -9 -22 -9 -28 0 -6 -9 -29 -19 -53 -11 -23 -25 -59 -32 -80 -7
-20 -18 -37 -25 -37 -6 0 -26 37 -44 83 -17 45 -36 92 -41 105 -5 12 -13 32
-18 45 -4 12 -13 34 -20 50 -6 15 -15 38 -21 52 -5 14 -14 36 -20 50 -24 61
-33 81 -41 97 -5 10 -9 27 -9 38 0 19 6 20 118 20 153 0 162 5 162 99 0 105
11 101 -286 101 -238 0 -250 -1 -267 -20z"/>
</g>
</svg>
